<?xml version="1.0" encoding="UTF-8"?>
<svg width="76px" height="70px" viewBox="0 0 76 70" version="1.1" xmlns="http://www.w3.org/2000/svg" xmlns:xlink="http://www.w3.org/1999/xlink">
    <!-- Generator: Sketch 49 (51002) - http://www.bohemiancoding.com/sketch -->
    <title>Page 1</title>
    <desc>Created with Sketch.</desc>
    <defs>
        <polygon id="path-1" points="0 0.182 75.5079 0.182 75.5079 45.669 0 45.669"></polygon>
    </defs>
    <g id="Home" stroke="none" stroke-width="1" fill="none" fill-rule="evenodd">
        <g transform="translate(-1579.000000, -617.000000)" id="Page-1">
            <g transform="translate(1579.000000, 616.000000)">
                <path d="M41.0844,45.868 C40.5994,45.868 40.2054,45.473 40.2054,44.989 L40.2054,35.113 L35.8524,35.113 L35.8524,44.989 C35.8524,45.473 35.4594,45.868 34.9734,45.868 C34.4884,45.868 34.0944,45.473 34.0944,44.989 L34.0944,34.234 C34.0944,33.749 34.4884,33.355 34.9734,33.355 L41.0844,33.355 C41.5694,33.355 41.9634,33.749 41.9634,34.234 L41.9634,44.989 C41.9634,45.473 41.5694,45.868 41.0844,45.868" id="Fill-1" fill="#FFFFFF"></path>
                <path d="M50.9828,45.868 C50.4978,45.868 50.1038,45.473 50.1038,44.989 L50.1038,31.912 C50.1038,31.427 50.4978,31.034 50.9828,31.034 L52.9808,31.034 L49.3248,28.021 C49.1218,27.854 49.0038,27.605 49.0038,27.343 L49.0038,19.553 L45.9968,19.553 L45.9968,23.415 C45.9968,23.755 45.7998,24.065 45.4928,24.21 C45.1848,24.355 44.8208,24.31 44.5578,24.093 L38.0288,18.713 L23.0778,31.034 L24.9528,31.034 C25.4388,31.034 25.8318,31.427 25.8318,31.912 L25.8318,44.989 C25.8318,45.473 25.4388,45.868 24.9528,45.868 C24.4668,45.868 24.0738,45.473 24.0738,44.989 L24.0738,32.791 L20.6288,32.791 C20.2578,32.791 19.9268,32.558 19.8018,32.21 C19.6758,31.861 19.7838,31.47 20.0698,31.234 L37.4698,16.896 C37.7948,16.628 38.2628,16.628 38.5878,16.896 L44.2388,21.552 L44.2388,18.674 C44.2388,18.189 44.6318,17.795 45.1178,17.795 L49.8828,17.795 C50.3688,17.795 50.7618,18.189 50.7618,18.674 L50.7618,26.928 L55.9878,31.234 C56.2738,31.47 56.3818,31.861 56.2558,32.21 C56.1308,32.558 55.7998,32.791 55.4288,32.791 L51.8618,32.791 L51.8618,44.989 C51.8618,45.473 51.4678,45.868 50.9828,45.868" id="Fill-3" fill="#FFFFFF"></path>
                <g id="Group-7" transform="translate(0.000000, 0.818000)">
                    <mask id="mask-2" fill="white">
                        <use xlink:href="#path-1"></use>
                    </mask>
                    <g id="Clip-6"></g>
                    <path d="M12.5439,22.34 C6.5969,22.34 1.7579,27.178 1.7579,33.126 C1.7579,39.073 6.5969,43.911 12.5439,43.911 L61.2459,43.911 C68.1409,43.911 73.7509,38.302 73.7509,31.406 C73.7509,24.704 68.5089,19.217 61.8189,18.915 C61.3729,18.895 61.0119,18.543 60.9819,18.097 C60.3639,9.037 52.7589,1.94 43.6709,1.94 C35.7819,1.94 28.8769,7.265 26.8819,14.889 C26.8119,15.158 26.6179,15.378 26.3599,15.482 C26.1029,15.586 25.8109,15.563 25.5729,15.417 C24.4559,14.735 23.1819,14.373 21.8869,14.373 C17.9789,14.373 14.7989,17.553 14.7989,21.461 C14.8009,21.473 14.8039,21.507 14.8039,21.541 C14.8059,21.794 14.6999,22.035 14.5119,22.204 C14.3239,22.372 14.0749,22.454 13.8219,22.423 C13.3509,22.367 12.9329,22.34 12.5439,22.34 M61.2459,45.669 L12.5439,45.669 C5.6269,45.669 -0.0001,40.042 -0.0001,33.126 C-0.0001,26.209 5.6269,20.582 12.5439,20.582 C12.7189,20.582 12.8979,20.587 13.0829,20.596 C13.5189,16.123 17.3009,12.615 21.8869,12.615 C23.1289,12.615 24.3569,12.881 25.4899,13.39 C28.0259,5.56 35.3509,0.182 43.6709,0.182 C53.4239,0.182 61.6239,7.603 62.6679,17.215 C69.9279,17.929 75.5079,24.021 75.5079,31.406 C75.5079,39.271 69.1099,45.669 61.2459,45.669" id="Fill-5" fill="#FFFFFF" mask="url(#mask-2)"></path>
                </g>
                <path d="M26.329,52.0594 C22.849,52.0594 19.908,53.8554 19.908,55.9804 C19.908,58.1054 22.849,59.9014 26.329,59.9014 C29.809,59.9014 32.75,58.1054 32.75,55.9804 C32.75,53.8554 29.809,52.0594 26.329,52.0594 M26.329,61.6594 C21.743,61.6594 18.15,59.1644 18.15,55.9804 C18.15,52.7954 21.743,50.3014 26.329,50.3014 C30.915,50.3014 34.508,52.7954 34.508,55.9804 C34.508,59.1644 30.915,61.6594 26.329,61.6594" id="Fill-8" fill="#FFFFFF"></path>
                <path d="M16.329,63.4588 C13.837,63.4588 11.733,64.7418 11.733,66.2598 C11.733,67.7768 13.837,69.0608 16.329,69.0608 C18.82,69.0608 20.925,67.7768 20.925,66.2598 C20.925,64.7418 18.82,63.4588 16.329,63.4588 M16.329,70.8178 C12.766,70.8178 9.975,68.8158 9.975,66.2598 C9.975,63.7038 12.766,61.7008 16.329,61.7008 C19.892,61.7008 22.683,63.7038 22.683,66.2598 C22.683,68.8158 19.892,70.8178 16.329,70.8178" id="Fill-10" fill="#FFFFFF"></path>
            </g>
        </g>
    </g>
</svg>