<?xml version="1.0" encoding="UTF-8"?>
<svg width="78px" height="66px" viewBox="0 0 78 66" version="1.1" xmlns="http://www.w3.org/2000/svg" xmlns:xlink="http://www.w3.org/1999/xlink">
    <!-- Generator: Sketch 48.2 (47327) - http://www.bohemiancoding.com/sketch -->
    <title>Page 1</title>
    <desc>Created with Sketch.</desc>
    <defs>
        <polygon id="path-1" points="0 0.922506792 77.875 0.922506792 77.875 8.9994 0 8.9994"></polygon>
        <polygon id="path-3" points="0.592600585 0.931 2.41676547 0.931 2.41676547 8.5557 0.592600585 8.5557"></polygon>
    </defs>
    <g id="Home" stroke="none" stroke-width="1" fill="none" fill-rule="evenodd" transform="translate(-1577.000000, -266.000000)">
        <g id="Page-1" transform="translate(1577.000000, 265.000000)">
            <path d="M65.9242,58.7925 L63.9902,58.7925 L63.9902,27.3145 C63.9902,26.0755 62.9832,25.0675 61.7432,25.0675 L15.9082,25.0675 C14.6692,25.0675 13.6612,26.0755 13.6612,27.3145 L13.6612,58.7925 L11.7282,58.7925 L11.7282,27.3145 C11.7282,25.0095 13.6032,23.1345 15.9082,23.1345 L61.7432,23.1345 C64.0492,23.1345 65.9242,25.0095 65.9242,27.3145 L65.9242,58.7925 Z" id="Fill-1" fill="#FFFFFF"></path>
            <path d="M71.4818,59.2524 L69.5478,59.2524 L69.5478,22.5454 C69.5478,20.7994 68.1278,19.3784 66.3818,19.3784 L11.2708,19.3784 C9.5238,19.3784 8.1038,20.7994 8.1038,22.5454 L8.1038,59.2524 L6.1698,59.2524 L6.1698,22.5454 C6.1698,19.7324 8.4578,17.4454 11.2708,17.4454 L66.3818,17.4454 C69.1938,17.4454 71.4818,19.7324 71.4818,22.5454 L71.4818,59.2524 Z" id="Fill-3" fill="#FFFFFF"></path>
            <g id="Group-7" transform="translate(0.000000, 57.069300)">
                <mask id="mask-2" fill="white">
                    <use xlink:href="#path-1"></use>
                </mask>
                <g id="Clip-6"></g>
                <path d="M1.9334,3.0454 L1.9334,4.4054 C1.9334,5.8724 3.1264,7.0664 4.5944,7.0664 L73.2804,7.0664 C74.7484,7.0664 75.9414,5.8724 75.9414,4.4054 L75.9414,2.9774 C69.1454,2.7374 21.8134,2.9374 1.9334,3.0454 M73.2804,8.9994 L4.5944,8.9994 C2.0604,8.9994 -0.0006,6.9394 -0.0006,4.4054 L-0.0006,2.0844 C-0.0006,1.5524 0.4294,1.1194 0.9614,1.1174 C1.1504,1.1154 20.0594,1.0114 38.7764,0.9584 C77.0434,0.8514 77.1704,0.9794 77.5924,1.3994 C77.7734,1.5824 77.8754,1.8274 77.8754,2.0844 L77.8754,4.4054 C77.8754,6.9394 75.8134,8.9994 73.2804,8.9994" id="Fill-5" fill="#FFFFFF" mask="url(#mask-2)"></path>
            </g>
            <path d="M38.5531,30.3364 C34.6351,30.3364 31.4471,33.5184 31.4441,37.4324 C31.4431,39.3294 32.1811,41.1154 33.5231,42.4604 C34.8651,43.8064 36.6501,44.5474 38.5481,44.5494 C40.4171,44.5614 42.2251,43.8114 43.5701,42.4674 C44.9141,41.1234 45.6561,39.3384 45.6571,37.4424 C45.6581,35.5454 44.9201,33.7614 43.5771,32.4184 C42.2361,31.0774 40.4531,30.3374 38.5581,30.3364 L38.5531,30.3364 Z M38.5531,46.4204 L38.5471,46.4204 C36.1481,46.4194 33.8931,45.4824 32.1981,43.7814 C30.5031,42.0834 29.5711,39.8274 29.5731,37.4314 C29.5761,32.4854 33.6041,28.4644 38.5531,28.4644 L38.5591,28.4644 C40.9541,28.4664 43.2061,29.4004 44.9011,31.0954 C46.5971,32.7924 47.5301,35.0464 47.5291,37.4434 C47.5271,39.8394 46.5901,42.0934 44.8931,43.7914 C43.1971,45.4864 40.9451,46.4204 38.5531,46.4204 Z" id="Fill-8" fill="#FFFFFF"></path>
            <path d="M53.1595,58.8559 C51.4545,54.1139 48.0275,50.4019 43.6705,48.7169 L38.5425,54.5569 L33.4205,48.7099 C29.0555,50.3899 25.6195,54.1019 23.9095,58.8469 C23.7995,59.1539 21.8775,59.0079 21.9805,58.6999 C23.8865,52.9779 28.0635,48.5279 33.4045,46.7259 L33.9965,46.5259 L38.5435,51.7179 L43.0965,46.5329 L43.6885,46.7329 C49.0435,48.5479 53.2225,53.0289 55.1125,58.7819 C55.2155,59.0919 53.3065,59.2639 53.1595,58.8559" id="Fill-10" fill="#FFFFFF"></path>
            <polygon id="Fill-12" fill="#FFFFFF" points="38.7718 1.6523 38.6608 7.9813 38.2368 7.9733 38.3478 1.6443"></polygon>
            <polygon id="Fill-14" fill="#FFFFFF" points="38.3475 1.6445 38.2375 7.9735 38.6605 7.9805 38.7715 1.6525"></polygon>
            <path d="M38.2347,8.1181 C38.1967,8.1181 38.1597,8.1011 38.1337,8.0741 C38.1067,8.0461 38.0917,8.0101 38.0927,7.9711 L38.2027,1.6421 C38.2037,1.6041 38.2197,1.5671 38.2477,1.5401 C38.2667,1.5211 38.2967,1.5001 38.3627,1.5001 L38.7747,1.5081 C38.8547,1.5101 38.9177,1.5761 38.9167,1.6561 L38.8047,7.9831 C38.8037,8.0611 38.7387,8.1251 38.6607,8.1251 L38.2347,8.1181 Z" id="Fill-16" fill="#FFFFFF"></path>
            <g id="Group-20" transform="translate(37.000000, 0.069300)">
                <mask id="mask-4" fill="white">
                    <use xlink:href="#path-3"></use>
                </mask>
                <g id="Clip-19"></g>
                <path d="M1.3597,0.9307 C1.1827,0.9317 1.0237,0.9927 0.9007,1.1117 C0.7767,1.2297 0.7067,1.3927 0.7027,1.5637 L0.5927,7.8927 C0.5897,8.0637 0.6547,8.2287 0.7737,8.3517 C0.8927,8.4747 1.0557,8.5457 1.2267,8.5487 L1.6497,8.5557 L1.6607,8.5557 C2.0117,8.5557 2.2987,8.2747 2.3047,7.9227 L2.4167,1.5947 C2.4217,1.2397 2.1397,0.9457 1.7837,0.9387 L1.3597,0.9307 Z" id="Fill-18" fill="#FFFFFF" mask="url(#mask-4)"></path>
            </g>
            <polygon id="Fill-21" fill="#FFFFFF" points="53.4203 4.3872 51.2303 10.3172 50.8323 10.1712 53.0233 4.2412"></polygon>
            <polygon id="Fill-23" fill="#FFFFFF" points="53.0228 4.2407 50.8328 10.1707 51.2298 10.3177 53.4198 4.3867"></polygon>
            <path d="M51.179,10.4531 L50.783,10.3071 C50.745,10.2931 50.716,10.2661 50.7,10.2301 C50.685,10.1971 50.683,10.1561 50.697,10.1191 L52.887,4.1911 C52.911,4.1251 52.973,4.0961 53.023,4.0961 L53.47,4.2511 C53.505,4.2651 53.535,4.2911 53.55,4.3251 C53.568,4.3621 53.57,4.4011 53.556,4.4361 L51.366,10.3671 C51.341,10.4331 51.28,10.4621 51.23,10.4621 C51.213,10.4621 51.197,10.4591 51.179,10.4531" id="Fill-25" fill="#FFFFFF"></path>
            <path d="M53.0228,3.5962 C52.7608,3.5962 52.5138,3.7572 52.4188,4.0172 L50.2268,9.9482 C50.1688,10.1082 50.1748,10.2852 50.2468,10.4412 C50.3188,10.5962 50.4498,10.7172 50.6098,10.7762 L51.0068,10.9222 C51.0808,10.9492 51.1558,10.9622 51.2298,10.9622 C51.4918,10.9622 51.7388,10.8012 51.8348,10.5402 L54.0248,4.6102 C54.0848,4.4502 54.0778,4.2722 54.0048,4.1172 C53.9338,3.9612 53.8028,3.8412 53.6428,3.7822 L53.2458,3.6362 C53.1708,3.6092 53.0968,3.5962 53.0228,3.5962" id="Fill-27" fill="#FFFFFF"></path>
            <polygon id="Fill-29" fill="#FFFFFF" points="23.9642 4.0962 26.0882 10.0492 25.6902 10.1912 23.5652 4.2382"></polygon>
            <polygon id="Fill-31" fill="#FFFFFF" points="23.9642 4.0962 23.5652 4.2382 25.6902 10.1912 26.0882 10.0492"></polygon>
            <path d="M25.6898,10.3364 C25.6388,10.3364 25.5768,10.3064 25.5528,10.2394 L23.4288,4.2874 C23.4068,4.2234 23.4518,4.1254 23.5158,4.1034 L23.9158,3.9604 L24.0258,3.9654 C24.0608,3.9824 24.0868,4.0114 24.1008,4.0474 L26.2248,10.0004 C26.2368,10.0364 26.2348,10.0764 26.2188,10.1104 C26.2028,10.1454 26.1728,10.1724 26.1378,10.1854 L25.7378,10.3274 L25.6898,10.3364 Z" id="Fill-33" fill="#FFFFFF"></path>
            <path d="M23.9642,3.4516 C23.8912,3.4516 23.8172,3.4646 23.7472,3.4896 L23.3482,3.6316 C23.0132,3.7506 22.8392,4.1196 22.9582,4.4546 L25.0822,10.4076 C25.1762,10.6716 25.4242,10.8366 25.6902,10.8366 C25.7612,10.8366 25.8352,10.8236 25.9062,10.7986 L26.3052,10.6566 C26.4652,10.5986 26.5972,10.4796 26.6712,10.3256 C26.7442,10.1706 26.7532,9.9936 26.6952,9.8326 L24.5712,3.8796 C24.5132,3.7186 24.3942,3.5866 24.2402,3.5136 C24.1522,3.4726 24.0582,3.4516 23.9642,3.4516" id="Fill-35" fill="#FFFFFF"></path>
        </g>
    </g>
</svg>