<?xml version="1.0" encoding="UTF-8"?>
<svg width="81px" height="46px" viewBox="0 0 81 46" version="1.1" xmlns="http://www.w3.org/2000/svg" xmlns:xlink="http://www.w3.org/1999/xlink">
    <!-- Generator: Sketch 48.2 (47327) - http://www.bohemiancoding.com/sketch -->
    <title>Page 1</title>
    <desc>Created with Sketch.</desc>
    <defs>
        <polygon id="path-1" points="0 0.0005 80.585 0.0005 80.585 45.4804 0 45.4804"></polygon>
    </defs>
    <g id="Home" stroke="none" stroke-width="1" fill="none" fill-rule="evenodd" transform="translate(-1569.000000, -96.000000)">
        <g id="Page-1" transform="translate(1569.000000, 96.000000)">
            <mask id="mask-2" fill="white">
                <use xlink:href="#path-1"></use>
            </mask>
            <g id="Clip-2"></g>
            <path d="M71.5299,20.5474 C73.9889,19.3374 76.9949,17.5804 76.9949,14.7704 C76.9949,11.8824 74.0669,10.5164 71.5299,10.5164 C68.6809,10.5164 66.0269,11.9224 66.0269,14.7704 C66.0269,17.8934 69.3059,19.4544 71.5299,20.5474 Z M71.5299,22.5374 C68.3689,23.8254 65.1689,24.9194 65.1689,28.7044 C65.1689,31.7484 68.4079,33.6224 71.5299,33.6224 C74.7299,33.6224 77.8919,32.2164 77.8919,28.4694 C77.8919,25.0364 74.0279,23.8254 71.5299,22.5374 Z M71.5299,8.1744 C75.7849,8.1744 79.6869,10.0874 79.6869,14.5364 C79.6869,17.8934 76.6819,20.1174 74.1059,21.5234 C77.8139,22.8504 80.5859,24.4114 80.5859,28.7044 C80.5859,34.0504 75.9019,35.9644 71.5299,35.9644 C67.1979,35.9644 62.4749,33.7004 62.4749,28.7044 C62.4749,24.5284 65.2079,22.8114 68.7589,21.5234 C65.9489,20.1954 63.3339,18.1274 63.3339,14.5364 C63.3339,9.9704 68.2139,8.1744 71.5299,8.1744 Z M55.8009,8.4484 L58.2209,8.4484 L58.2209,35.6904 L55.5279,35.6904 L55.5279,11.4924 L51.1179,15.3564 L49.6339,13.6004 L55.8009,8.4484 Z M2.4859,36.0824 L4.0739,37.6704 L19.1329,22.6114 L4.1909,7.6704 L2.6029,9.2574 L15.9569,22.6114 L2.4859,36.0824 Z M4.0739,40.1554 L-0.0001,36.0824 L13.4699,22.6114 L0.1169,9.2574 L4.1909,5.1834 L21.6179,22.6114 L4.0739,40.1554 Z M26.3009,22.7524 L41.3599,37.8114 L42.9479,36.2234 L29.4769,22.7524 L42.8309,9.3994 L41.2429,7.8114 L26.3009,22.7524 Z M41.3599,40.2974 L23.8149,22.7524 L41.2429,5.3244 L45.3169,9.3994 L31.9629,22.7524 L45.4339,36.2234 L41.3599,40.2974 Z M22.6119,29.5234 L36.0819,42.9954 L37.6699,41.4074 L22.6119,26.3484 L7.6699,41.2894 L9.2579,42.8774 L22.6119,29.5234 Z M36.0819,45.4804 L22.6119,32.0104 L9.2579,45.3644 L5.1839,41.2894 L22.6119,23.8614 L40.1559,41.4074 L36.0819,45.4804 Z M7.6699,4.1914 L22.6119,19.1334 L37.6699,4.0744 L36.0819,2.4864 L22.6119,15.9564 L9.2579,2.6034 L7.6699,4.1914 Z M22.6119,21.6194 L5.1839,4.1914 L9.2579,0.1174 L22.6119,13.4704 L36.0819,0.0004 L40.1559,4.0744 L22.6119,21.6194 Z" id="Fill-1" fill="#FFFFFF" mask="url(#mask-2)"></path>
        </g>
    </g>
</svg>